# xmcd
#
# Track frame offsets: 
#        150
#        12217
#        23911
#        41080
#        61175
#        80487
#        94321
#        105144
#        117370
#        133399
#        146409
#        159228
#
# Disc length: 2277 seconds
#
# Revision: 0
# Processed by: cddbd v1.5.2PL0 Copyright (c) Steve Scherf et al.
# Submitted via: ExactAudioCopy v1.3
#
DISCID=9508e30c
DTITLE=Eric Lindell - Revolution In Your Heart
DYEAR=2018
DGENRE=Modern Electric Blues
TTITLE0=Shot Down
TTITLE1=Revolution
TTITLE2=Heavy Heart
TTITLE3=How Could This Be?
TTITLE4=Big Horse
TTITLE5=Pat West
TTITLE6=Kelly Ridge
TTITLE7=Claudette
TTITLE8=Appaloosa
TTITLE9=Millie Kay
TTITLE10=Grandpa Jim
TTITLE11=The Sun Don't Shine
EXTD=
EXTT0=
EXTT1=
EXTT2=
EXTT3=
EXTT4=
EXTT5=
EXTT6=
EXTT7=
EXTT8=
EXTT9=
EXTT10=
EXTT11=
PLAYORDER=
